# xmcd
#
# Track frame offsets:
#	150
#	17189
#	32991
#	48329
#	66435
#	82546
#	98139
#	113964
#	132978
#	151569
#	168608
#	184410
#	199748
#	217854
#	233965
#	249558
#	265383
#	284397
#
# Disc length: 4039
#
# Revision: 2
# Processed by: cddbd v1.5.2PL0 Copyright (c) Steve Scherf et al.
# Submitted via: kJams Pro (development) 1.0patch45.20
#
DISCID=fd0fc512
DTITLE=Various Artist - NSC 3056
DYEAR=2005
DGENRE=Country
TTITLE0=Toby Keith - Stays In Mexico
TTITLE1=Brooks and Dunn - That's What It's All About
TTITLE2=Lonestar - Mr. Mom
TTITLE3=George Strait - I Hate Everything
TTITLE4=Montgomery Gentry - You Do Your Thing
TTITLE5=Blake Shelton - Some Beach
TTITLE6=Darryl Worley - Awful Beautiful Day
TTITLE7=Mark Chesnutt - The Lord Loves The Drinking Man
TTITLE8=Shania Twain - When You Kiss Me
TTITLE9=Toby Keith - Vocals - Stays In Mexico
TTITLE10=Brooks and Dunn - Vocals - That's What It's All About
TTITLE11=Lonestar - Vocals - Mr. Mom
TTITLE12=George Strait - Vocals - I Hate Everything
TTITLE13=Montgomery Gentry - Vocals - You Do Your Thing
TTITLE14=Blake Shelton - Vocals - Some Beach
TTITLE15=Darryl Worley - Vocals - Awful Beautiful Day
TTITLE16=Mark Chesnutt - Vocals - The Lord Loves The Drinking Man
TTITLE17=Shania Twain - Vocals - When You Kiss Me
EXTD=
EXTT0=
EXTT1=
EXTT2=
EXTT3=
EXTT4=
EXTT5=
EXTT6=
EXTT7=
EXTT8=
EXTT9=
EXTT10=
EXTT11=
EXTT12=
EXTT13=
EXTT14=
EXTT15=
EXTT16=
EXTT17=
PLAYORDER=
